<svg id="visual" viewBox="0 0 900 600" width="900" height="600" xmlns="http://www.w3.org/2000/svg" xmlns:xlink="http://www.w3.org/1999/xlink" version="1.1"><rect x="0" y="0" width="900" height="600" fill="#001220"></rect><defs><linearGradient id="grad1_0" x1="33.3%" y1="100%" x2="100%" y2="0%"><stop offset="20%" stop-color="#fbae3c" stop-opacity="1"></stop><stop offset="80%" stop-color="#fbae3c" stop-opacity="1"></stop></linearGradient></defs><defs><linearGradient id="grad1_1" x1="33.3%" y1="100%" x2="100%" y2="0%"><stop offset="20%" stop-color="#fbae3c" stop-opacity="1"></stop><stop offset="80%" stop-color="#e1685e" stop-opacity="1"></stop></linearGradient></defs><defs><linearGradient id="grad1_2" x1="33.3%" y1="100%" x2="100%" y2="0%"><stop offset="20%" stop-color="#96446e" stop-opacity="1"></stop><stop offset="80%" stop-color="#e1685e" stop-opacity="1"></stop></linearGradient></defs><defs><linearGradient id="grad1_3" x1="33.3%" y1="100%" x2="100%" y2="0%"><stop offset="20%" stop-color="#96446e" stop-opacity="1"></stop><stop offset="80%" stop-color="#3d3056" stop-opacity="1"></stop></linearGradient></defs><defs><linearGradient id="grad1_4" x1="33.3%" y1="100%" x2="100%" y2="0%"><stop offset="20%" stop-color="#001220" stop-opacity="1"></stop><stop offset="80%" stop-color="#3d3056" stop-opacity="1"></stop></linearGradient></defs><defs><linearGradient id="grad2_0" x1="0%" y1="100%" x2="66.7%" y2="0%"><stop offset="20%" stop-color="#fbae3c" stop-opacity="1"></stop><stop offset="80%" stop-color="#fbae3c" stop-opacity="1"></stop></linearGradient></defs><defs><linearGradient id="grad2_1" x1="0%" y1="100%" x2="66.7%" y2="0%"><stop offset="20%" stop-color="#e1685e" stop-opacity="1"></stop><stop offset="80%" stop-color="#fbae3c" stop-opacity="1"></stop></linearGradient></defs><defs><linearGradient id="grad2_2" x1="0%" y1="100%" x2="66.7%" y2="0%"><stop offset="20%" stop-color="#e1685e" stop-opacity="1"></stop><stop offset="80%" stop-color="#96446e" stop-opacity="1"></stop></linearGradient></defs><defs><linearGradient id="grad2_3" x1="0%" y1="100%" x2="66.7%" y2="0%"><stop offset="20%" stop-color="#3d3056" stop-opacity="1"></stop><stop offset="80%" stop-color="#96446e" stop-opacity="1"></stop></linearGradient></defs><defs><linearGradient id="grad2_4" x1="0%" y1="100%" x2="66.7%" y2="0%"><stop offset="20%" stop-color="#3d3056" stop-opacity="1"></stop><stop offset="80%" stop-color="#001220" stop-opacity="1"></stop></linearGradient></defs><g transform="translate(900, 600)"><path d="M-297.5 0C-244.7 -7.4 -192 -14.8 -200.9 -35.4C-209.8 -56.1 -280.4 -90 -278.1 -101.2C-275.9 -112.5 -200.8 -101 -160.2 -92.5C-119.6 -84 -113.4 -78.5 -129.5 -108.6C-145.5 -138.8 -183.7 -204.6 -174.8 -208.4C-166 -212.1 -110 -153.8 -94.5 -163.7C-79 -173.6 -103.8 -251.6 -101.7 -279.5C-99.7 -307.4 -70.8 -285.1 -49.3 -279.7C-27.9 -274.3 -13.9 -285.9 0 -297.5L0 0Z" fill="#18223c"></path><path d="M-238 0C-195.8 -5.9 -153.6 -11.8 -160.7 -28.3C-167.9 -44.9 -224.3 -72 -222.5 -81C-220.7 -90 -160.7 -80.8 -128.2 -74C-95.7 -67.2 -90.7 -62.8 -103.6 -86.9C-116.4 -111 -147 -163.7 -139.9 -166.7C-132.8 -169.7 -88 -123 -75.6 -130.9C-63.2 -138.8 -83 -201.3 -81.4 -223.6C-79.7 -245.9 -56.6 -228.1 -39.5 -223.7C-22.3 -219.4 -11.2 -228.7 0 -238L0 0Z" fill="#683a67"></path><path d="M-178.5 0C-146.8 -4.4 -115.2 -8.9 -120.5 -21.3C-125.9 -33.6 -168.2 -54 -166.9 -60.7C-165.5 -67.5 -120.5 -60.6 -96.1 -55.5C-71.8 -50.4 -68.1 -47.1 -77.7 -65.2C-87.3 -83.3 -110.2 -122.8 -104.9 -125C-99.6 -127.3 -66 -92.3 -56.7 -98.2C-47.4 -104.1 -62.3 -151 -61 -167.7C-59.8 -184.4 -42.5 -171 -29.6 -167.8C-16.7 -164.6 -8.4 -171.5 0 -178.5L0 0Z" fill="#c0526a"></path><path d="M-119 0C-97.9 -3 -76.8 -5.9 -80.4 -14.2C-83.9 -22.4 -112.2 -36 -111.3 -40.5C-110.4 -45 -80.3 -40.4 -64.1 -37C-47.8 -33.6 -45.4 -31.4 -51.8 -43.5C-58.2 -55.5 -73.5 -81.8 -69.9 -83.3C-66.4 -84.8 -44 -61.5 -37.8 -65.5C-31.6 -69.4 -41.5 -100.7 -40.7 -111.8C-39.9 -123 -28.3 -114 -19.7 -111.9C-11.2 -109.7 -5.6 -114.4 0 -119L0 0Z" fill="#f6884d"></path><path d="M-59.5 0C-48.9 -1.5 -38.4 -3 -40.2 -7.1C-42 -11.2 -56.1 -18 -55.6 -20.2C-55.2 -22.5 -40.2 -20.2 -32 -18.5C-23.9 -16.8 -22.7 -15.7 -25.9 -21.7C-29.1 -27.8 -36.7 -40.9 -35 -41.7C-33.2 -42.4 -22 -30.8 -18.9 -32.7C-15.8 -34.7 -20.8 -50.3 -20.3 -55.9C-19.9 -61.5 -14.2 -57 -9.9 -55.9C-5.6 -54.9 -2.8 -57.2 0 -59.5L0 0Z" fill="#fbae3c"></path></g><g transform="translate(0, 0)"><path d="M297.5 0C291.1 16.1 284.8 32.3 276.7 48.8C268.7 65.3 258.9 82.2 232.1 84.5C205.3 86.7 161.6 74.4 167.1 96.5C172.7 118.6 227.4 175.2 227.9 191.2C228.3 207.2 174.5 182.6 143.3 170.8C112.2 159.1 103.8 160.1 93 161.1C82.2 162.1 69 162.9 58.5 160.7C48 158.4 40.2 153 30.9 175.3C21.6 197.6 10.8 247.5 0 297.5L0 0Z" fill="#18223c"></path><path d="M238 0C232.9 12.9 227.8 25.8 221.4 39C214.9 52.3 207.1 65.8 185.7 67.6C164.3 69.4 129.3 59.5 133.7 77.2C138.1 94.9 181.9 140.2 182.3 153C182.7 165.8 139.6 146.1 114.7 136.7C89.8 127.2 83 128.1 74.4 128.9C65.8 129.6 55.2 130.4 46.8 128.5C38.4 126.7 32.2 122.4 24.7 140.2C17.3 158.1 8.6 198 0 238L0 0Z" fill="#683a67"></path><path d="M178.5 0C174.7 9.7 170.9 19.4 166 29.3C161.2 39.2 155.3 49.3 139.3 50.7C123.2 52 97 44.6 100.3 57.9C103.6 71.2 136.4 105.1 136.7 114.7C137 124.3 104.7 109.6 86 102.5C67.3 95.4 62.3 96.1 55.8 96.6C49.3 97.2 41.4 97.8 35.1 96.4C28.8 95.1 24.1 91.8 18.5 105.2C13 118.5 6.5 148.5 0 178.5L0 0Z" fill="#c0526a"></path><path d="M119 0C116.5 6.5 113.9 12.9 110.7 19.5C107.5 26.1 103.5 32.9 92.8 33.8C82.1 34.7 64.7 29.8 66.9 38.6C69.1 47.4 91 70.1 91.1 76.5C91.3 82.9 69.8 73 57.3 68.3C44.9 63.6 41.5 64 37.2 64.4C32.9 64.8 27.6 65.2 23.4 64.3C19.2 63.4 16.1 61.2 12.4 70.1C8.6 79 4.3 99 0 119L0 0Z" fill="#f6884d"></path><path d="M59.5 0C58.2 3.2 57 6.5 55.3 9.8C53.7 13.1 51.8 16.4 46.4 16.9C41.1 17.3 32.3 14.9 33.4 19.3C34.5 23.7 45.5 35 45.6 38.2C45.7 41.4 34.9 36.5 28.7 34.2C22.4 31.8 20.8 32 18.6 32.2C16.4 32.4 13.8 32.6 11.7 32.1C9.6 31.7 8 30.6 6.2 35.1C4.3 39.5 2.2 49.5 0 59.5L0 0Z" fill="#fbae3c"></path></g></svg>